<?xml version="1.0" encoding="UTF-8" standalone="no"?>
<!DOCTYPE svg PUBLIC "-//W3C//DTD SVG 1.1//EN"
 "http://www.w3.org/Graphics/SVG/1.1/DTD/svg11.dtd">
<!-- Generated by graphviz version 2.43.0 (0)
 -->
<!-- Title: G Pages: 1 -->
<svg width="304pt" height="148pt"
 viewBox="0.00 0.00 304.20 148.20" xmlns="http://www.w3.org/2000/svg" xmlns:xlink="http://www.w3.org/1999/xlink">
<g id="graph0" class="graph" transform="scale(1 1) rotate(0) translate(21.6 126.6)">
<title>G</title>
<polygon fill="#111111" stroke="transparent" points="-21.6,21.6 -21.6,-126.6 282.6,-126.6 282.6,21.6 -21.6,21.6"/>
<!-- client/page.ts -->
<g id="node1" class="node">
<title>client/page.ts</title>
<path fill="none" stroke="#cfffac" d="M92.33,-23C92.33,-23 11.67,-23 11.67,-23 7.83,-23 4,-19.17 4,-15.33 4,-15.33 4,-7.67 4,-7.67 4,-3.83 7.83,0 11.67,0 11.67,0 92.33,0 92.33,0 96.17,0 100,-3.83 100,-7.67 100,-7.67 100,-15.33 100,-15.33 100,-19.17 96.17,-23 92.33,-23"/>
<text text-anchor="middle" x="52" y="-7.8" font-family="Arial" font-size="14.00" fill="#cfffac">client/page.ts</text>
</g>
<!-- common/paths.ts -->
<g id="node2" class="node">
<title>common/paths.ts</title>
<path fill="none" stroke="#cfffac" d="M253.33,-93C253.33,-93 147.67,-93 147.67,-93 143.83,-93 140,-89.17 140,-85.33 140,-85.33 140,-77.67 140,-77.67 140,-73.83 143.83,-70 147.67,-70 147.67,-70 253.33,-70 253.33,-70 257.17,-70 261,-73.83 261,-77.67 261,-77.67 261,-85.33 261,-85.33 261,-89.17 257.17,-93 253.33,-93"/>
<text text-anchor="middle" x="200.5" y="-77.8" font-family="Arial" font-size="14.00" fill="#cfffac">common/paths.ts</text>
</g>
<!-- server/app.ts -->
<g id="node3" class="node">
<title>server/app.ts</title>
<path fill="none" stroke="#c6c5fe" d="M91.83,-64C91.83,-64 12.17,-64 12.17,-64 8.33,-64 4.5,-60.17 4.5,-56.33 4.5,-56.33 4.5,-48.67 4.5,-48.67 4.5,-44.83 8.33,-41 12.17,-41 12.17,-41 91.83,-41 91.83,-41 95.67,-41 99.5,-44.83 99.5,-48.67 99.5,-48.67 99.5,-56.33 99.5,-56.33 99.5,-60.17 95.67,-64 91.83,-64"/>
<text text-anchor="middle" x="52" y="-48.8" font-family="Arial" font-size="14.00" fill="#c6c5fe">server/app.ts</text>
</g>
<!-- server/app.ts&#45;&gt;common/paths.ts -->
<g id="edge1" class="edge">
<title>server/app.ts&#45;&gt;common/paths.ts</title>
<path fill="none" stroke="#757575" d="M99.76,-61.76C109.78,-63.74 120.57,-65.88 131.23,-67.98"/>
<polygon fill="#757575" stroke="#757575" points="130.87,-71.48 141.36,-69.99 132.23,-64.62 130.87,-71.48"/>
</g>
<!-- server/parcel.ts -->
<g id="node4" class="node">
<title>server/parcel.ts</title>
<path fill="none" stroke="#ff6c60" d="M247.33,-34C247.33,-34 153.67,-34 153.67,-34 149.83,-34 146,-30.17 146,-26.33 146,-26.33 146,-18.67 146,-18.67 146,-14.83 149.83,-11 153.67,-11 153.67,-11 247.33,-11 247.33,-11 251.17,-11 255,-14.83 255,-18.67 255,-18.67 255,-26.33 255,-26.33 255,-30.17 251.17,-34 247.33,-34"/>
<text text-anchor="middle" x="200.5" y="-18.8" font-family="Arial" font-size="14.00" fill="#ff6c60">server/parcel.ts</text>
</g>
<!-- server/app.ts&#45;&gt;server/parcel.ts -->
<g id="edge2" class="edge">
<title>server/app.ts&#45;&gt;server/parcel.ts</title>
<path fill="none" stroke="#757575" d="M99.76,-42.93C111.2,-40.58 123.65,-38.03 135.75,-35.56"/>
<polygon fill="#757575" stroke="#757575" points="136.7,-38.93 145.79,-33.5 135.3,-32.08 136.7,-38.93"/>
</g>
<!-- server/parcel.ts&#45;&gt;server/parcel.ts -->
<g id="edge3" class="edge">
<title>server/parcel.ts&#45;&gt;server/parcel.ts</title>
<path fill="none" stroke="#757575" d="M176.33,-34.01C167.3,-42.91 175.35,-52 200.5,-52 216.22,-52 225.26,-48.45 227.62,-43.61"/>
<polygon fill="#757575" stroke="#757575" points="230.95,-42.53 224.67,-34.01 224.26,-44.59 230.95,-42.53"/>
</g>
<!-- server/index.ts -->
<g id="node5" class="node">
<title>server/index.ts</title>
<path fill="none" stroke="#cfffac" d="M96.33,-105C96.33,-105 7.67,-105 7.67,-105 3.83,-105 0,-101.17 0,-97.33 0,-97.33 0,-89.67 0,-89.67 0,-85.83 3.83,-82 7.67,-82 7.67,-82 96.33,-82 96.33,-82 100.17,-82 104,-85.83 104,-89.67 104,-89.67 104,-97.33 104,-97.33 104,-101.17 100.17,-105 96.33,-105"/>
<text text-anchor="middle" x="52" y="-89.8" font-family="Arial" font-size="14.00" fill="#cfffac">server/index.ts</text>
</g>
</g>
</svg>
